# xmcd
#
# Track frame offsets:
#	150
#	8320
#	15967
#	25240
#	34786
#	45611
#	54867
#	63372
#	72346
#	79858
#	90938
#	102884
#	110821
#	120299
#
# Disc length: 1715 seconds
#
# Revision: 1
# Processed by: cddbd v1.5.1PL2 Copyright (c) Steve Scherf et al.
# Submitted via: audiograbber 1.83.01
#
DISCID=9806b10e
DTITLE=Johnny Cash - Songs of our Soil
DYEAR=1900
DGENRE=Country
TTITLE0=Johnny Cash - Drink To Me
TTITLE1=Johnny Cash - Five Feet High And Rising
TTITLE2=Johnny Cash - Man On The Hill
TTITLE3=Johnny Cash - Hank And Joe And Me
TTITLE4=Johnny Cash - Clementine
TTITLE5=Johnny Cash - Don't Step On Mother's Roses
TTITLE6=Johnny Cash - The Great Speckled Bird
TTITLE7=Johnny Cash - I Want To Go Home
TTITLE8=Johnny Cash - The Caretaker
TTITLE9=Johnny Cash - Old Apache Squaw
TTITLE10=Johnny Cash - My Grandfather's Clock
TTITLE11=Johnny Cash - It Could Be You (Instead Of Him)
TTITLE12=Johnny Cash - I Got Stripes (Bonus Track)
TTITLE13=Johnny Cash - You Dreamer You (Bonus Track)
EXTD=
EXTT0=
EXTT1=
EXTT2=
EXTT3=
EXTT4=
EXTT5=
EXTT6=
EXTT7=
EXTT8=
EXTT9=
EXTT10=
EXTT11=
EXTT12=
EXTT13=
PLAYORDER=
